<svg data-v-0dd9719b="" version="1.0" xmlns="http://www.w3.org/2000/svg" xmlns:xlink="http://www.w3.org/1999/xlink" width="100%" height="100%" viewBox="0 0 340.000000 250.000000" preserveAspectRatio="xMidYMid meet" color-interpolation-filters="sRGB" style="margin: auto;"> <rect data-v-0dd9719b="" x="0" y="0" width="100%" height="100%" fill="#fff" fill-opacity="1" class="background"></rect> <rect data-v-0dd9719b="" x="0" y="0" width="100%" height="100%" fill="url(#watermark)" fill-opacity="1" class="watermarklayer"></rect> <g data-v-0dd9719b="" fill="#333" class="icon-text-wrapper icon-svg-group iconsvg" transform="translate(48.214996337890625,95.68165016174316)"><g class="iconsvg-imagesvg" transform="translate(0,0)"><g><rect fill="#333" fill-opacity="0" stroke-width="2" x="0" y="0" width="60" height="58.636696799413635" class="image-rect"></rect> <svg x="0" y="0" width="60" height="58.636696799413635" filtersec="colorsb4812941322" class="image-svg-svg primary" style="overflow: visible;"><svg xmlns="http://www.w3.org/2000/svg" viewBox="0 0 478 467.1400146484375"><defs><linearGradient id="aca3d6e48-e184-44d6-8ae0-9e2f0da0d969" x1="741.38" y1="652.71" x2="702.62" y2="180.43" gradientUnits="userSpaceOnUse"><stop offset="0" stop-color="#344ace"></stop><stop offset="1" stop-color="#44bff4"></stop></linearGradient></defs><path d="M772.7 183v171.32h48.88V261.1a184.56 184.56 0 0 1 0 310.94v-127.5c0-29.9-21.88-54.13-48.88-54.13h-78c-12.93 0-23.41-11.61-23.41-25.93V239.75 183C563.79 206.31 483 302.18 483 416.57s80.79 210.25 188.3 233.57V480.63h-48.88V572a184.56 184.56 0 0 1 0-310.94v129.35c0 29.89 21.88 54.13 48.88 54.13h79.63c12 0 21.77 10.79 21.77 24.1v181.5C880.21 626.82 961 531 961 416.57S880.21 206.31 772.7 183z" transform="translate(-483 -183)" fill="url(#aca3d6e48-e184-44d6-8ae0-9e2f0da0d969)"></path></svg></svg> <!----></g></g> <g transform="translate(67,1.2520980834960938)"><g data-gra="path-name" fill-rule="" class="tp-name iconsvg-namesvg" transform="translate(0,0)"><g transform="scale(1)"><g><path d="M32.87-1.41L32.87-11.43 12.22-11.43 12.22-1.41 32.87-1.41ZM12.22 3.47L8.92 3.47 8.92-14.46 36.25-14.46 36.25 3.47 32.87 3.47 32.87 1.63 12.22 1.63 12.22 3.47ZM11.25-20.08L11.25-23.03 33.79-23.03 33.79-20.08 11.25-20.08ZM20.52-37.53L20.52-37.53 23.91-37.53Q28.87-30.63 36.96-25.22L36.96-25.22Q40.39-22.94 43.64-21.45L43.64-21.45Q42.5-20.35 41.44-18.59L41.44-18.59Q33.57-22.68 27.03-29.09L27.03-29.09Q24.21-31.77 22.41-34.28L22.41-34.28Q18.46-28.39 10.85-22.81L10.85-22.81Q7.29-20.21 3.74-18.33L3.74-18.33Q2.99-19.69 1.67-20.96L1.67-20.96Q9.58-24.96 15.95-31.73L15.95-31.73Q18.81-34.76 20.52-37.53ZM52.82-15.12L52.82-15.12 59.24-15.12 59.24-22.72 52.91-22.72 52.91-20.08Q52.91-16.88 52.82-15.12ZM59.24-25.8L59.24-33.22 52.91-33.22 52.91-25.8 59.24-25.8ZM49.88-36.25L62.36-36.25 62.36-1.01Q62.27 1.63 60.82 2.37L60.82 2.37Q59.28 3.08 54.89 3.08L54.89 3.08Q54.71 1.49 53.96-0.22L53.96-0.22Q56.03-0.13 58.4-0.13L58.4-0.13Q59.19-0.26 59.24-1.05L59.24-1.05 59.24-11.95 52.69-11.95Q51.94-2.02 49.44 3.52L49.44 3.52Q48.16 2.42 46.71 1.93L46.71 1.93Q49.79-4.7 49.88-18.9L49.88-18.9Q49.88-19.47 49.88-20.08L49.88-20.08 49.88-36.25ZM74.58-19.34L74.58-32.26 69.08-32.26 69.08-19.34 74.58-19.34ZM77.43-19.34L82.88-19.34 82.88-32.26 77.43-32.26 77.43-19.34ZM72.25-0.48L72.25-0.48 81.74-0.48Q83.58-0.48 84.2-2.07L84.2-2.07Q84.81-3.6 85.03-8.57L85.03-8.57Q86.66-7.56 88.15-7.21L88.15-7.21Q87.71-1.01 86.4 0.88L86.4 0.88Q85.03 2.68 81.91 2.68L81.91 2.68 71.98 2.68Q68.03 2.68 66.8 1.05L66.8 1.05Q65.83-0.35 65.83-3.52L65.83-3.52 65.83-35.46 86.13-35.46 86.13-13.75 82.88-13.75 82.88-16.17 69.08-16.17 69.08-3.47Q69.08-1.32 70.05-0.83L70.05-0.83Q70.75-0.48 72.25-0.48ZM128.94-26.54L123.18-26.54 123.18-20.21Q123.13-15.51 125.11-10.24L125.11-10.24Q127.84-3.16 133.29 0.4L133.29 0.4Q131.92 2.11 131.22 3.25L131.22 3.25Q125.38-0.66 122.61-8.96L122.61-8.96Q121.82-11.43 121.55-13.45L121.55-13.45Q120.85-8.44 117.64-3.6L117.64-3.6Q114.74 0.7 110.57 3.3L110.57 3.3Q109.86 1.93 108.63 0.57L108.63 0.57Q110.65-0.62 112.28-2.11L112.28-2.11 97.08-2.11 97.08 1.27 93.82 1.27 93.82-34.76 112.5-34.76 112.5-31.64 97.08-31.64 97.08-5.23 112.9-5.23 112.9-2.72Q118.3-8.22 119.62-16.7L119.62-16.7Q119.93-18.68 119.93-20.21L119.93-20.21 119.93-26.54 117.03-26.54Q115.27-20.35 113.16-16.92L113.16-16.92Q111.88-18.19 110.39-19.03L110.39-19.03Q114.3-25 115.88-37.66L115.88-37.66 119.27-37.18Q118.7-33.44 117.86-29.66L117.86-29.66 129.77-29.66 130.39-29.84 132.58-28.96Q131.4-21.53 129.51-16.96L129.51-16.96 127.05-18.28Q128.28-22.06 128.94-26.54L128.94-26.54ZM106.92-30.28L106.92-30.28 110-29.75Q108.85-24.13 106.83-18.72L106.83-18.72Q110.26-14.72 111.93-11.82L111.93-11.82 109.73-9.4Q108.19-12.17 105.47-15.51L105.47-15.51Q103.1-10.2 100.02-6.64L100.02-6.64Q99.14-7.47 97.51-8.7L97.51-8.7Q100.81-12.35 103.32-18.15L103.32-18.15Q100.33-21.58 97.43-24.26L97.43-24.26 99.4-26.32Q102.26-23.69 104.5-21.27L104.5-21.27Q106-25.49 106.92-30.28ZM166.99-26.76L166.99-26.76 147.74-26.76Q151.17-17.49 157.41-11.07L157.41-11.07Q163.56-17.36 166.99-26.76ZM177.8-30.06L177.8-26.76 170.86-26.76Q166.95-15.86 159.96-8.75L159.96-8.75Q167.65-2.33 178.24 0.18L178.24 0.18Q176.84 1.54 175.87 3.43L175.87 3.43Q164.88 0.57 157.28-6.2L157.28-6.2Q150.07-0.09 139 3.47L139 3.47Q138.43 2.07 137.02 0.44L137.02 0.44Q136.93 0.31 136.89 0.26L136.89 0.26Q147.7-2.86 154.78-8.66L154.78-8.66Q147.88-16.04 144.05-26.76L144.05-26.76 137.42-26.76 137.42-30.06 155.74-30.06 155.74-37.66 159.13-37.66 159.13-30.06 177.8-30.06Z" transform="translate(-1.6700000762939453, 37.65999984741211)"></path></g> <!----> <!----> <!----> <!----> <!----> <!----> <!----></g></g> <g data-gra="path-slogan" fill-rule="" class="tp-slogan iconsvg-slogansvg" fill="#333" transform="translate(47.01000213623047,47.18000030517578)"><!----> <!----> <g transform="scale(1, 1)"><g transform="scale(1)"><path d="M2.06-5.06L6.56-5.06L6.56-8.58L7.73-8.58L7.73 0L6.56 0L6.56-3.98L2.06-3.98L2.06 0L0.89 0L0.89-8.58L2.06-8.58L2.06-5.06ZM10.83-1.03L15.98-1.03L15.98 0L9.66 0L9.66-8.58L15.89-8.58L15.89-7.59L10.83-7.59L10.83-4.92L15.52-4.92L15.52-3.89L10.83-3.89L10.83-1.03ZM23.02-3.89L18.80-3.89L18.80 0L17.63 0L17.63-8.58L23.58-8.58L23.58-7.59L18.80-7.59L18.80-4.92L23.02-4.92L23.02-3.89ZM26.06-1.03L31.22-1.03L31.22 0L24.89 0L24.89-8.58L31.13-8.58L31.13-7.59L26.06-7.59L26.06-4.92L30.75-4.92L30.75-3.89L26.06-3.89L26.06-1.03ZM32.91-8.58L34.08-8.58L34.08 0L32.91 0L32.91-8.58ZM46.17-4.27L46.17-4.27Q45.98-7.64 43.17-7.83L43.17-7.83Q40.31-7.69 40.17-4.27L40.17-4.27Q40.31-0.94 43.17-0.80L43.17-0.80Q45.98-0.98 46.17-4.27ZM47.34-4.27L47.34-4.27Q47.06 0 43.17 0.14L43.17 0.14Q39.23 0 38.95-4.27L38.95-4.27Q39.19-8.72 43.17-8.81L43.17-8.81Q47.06-8.67 47.34-4.27ZM54.38-3.19L54.38-8.58L55.55-8.58L55.55-3.05Q55.41 0.05 52.03 0.14L52.03 0.14Q48.89 0.05 48.75-2.86L48.75-2.86L48.75-8.58L49.92-8.58L49.92-3.19Q49.97-0.84 52.08-0.80L52.08-0.80Q54.38-0.84 54.38-3.19L54.38-3.19ZM62.11-7.13L62.06-7.13L60.09 0L58.88 0L56.63-8.58L57.84-8.58L59.48-1.59L59.53-1.59L61.45-8.58L62.72-8.58L64.64-1.59L64.69-1.59L66.28-8.58L67.55-8.58L65.30 0L64.08 0L62.11-7.13ZM69.94-1.03L75.09-1.03L75.09 0L68.77 0L68.77-8.58L75-8.58L75-7.59L69.94-7.59L69.94-4.92L74.63-4.92L74.63-3.89L69.94-3.89L69.94-1.03ZM78-8.58L82.31-1.64L82.31-8.58L83.44-8.58L83.44 0L82.13 0L77.77-6.94L77.72-6.94L77.72 0L76.59 0L76.59-8.58L78-8.58Z" transform="translate(-0.890625, 8.8125)"></path></g></g></g></g></g><defs v-gra="od"></defs></svg>